<mxfile host="app.diagrams.net" agent="Mozilla/5.0 (Windows NT 10.0; Win64; x64) AppleWebKit/537.36 (KHTML, like Gecko) Chrome/134.0.0.0 Safari/537.36" version="26.1.1">
  <diagram name="第 1 页" id="t40axyAxqFmYoDBcP14O">
    <mxGraphModel dx="794" dy="454" grid="1" gridSize="10" guides="1" tooltips="1" connect="1" arrows="1" fold="1" page="1" pageScale="1" pageWidth="827" pageHeight="1169" math="0" shadow="0">
      <root>
        <mxCell id="0" />
        <mxCell id="1" parent="0" />
        <mxCell id="Mu4Yu6SJkgnIUBTmuAtY-1" value="" style="rounded=0;whiteSpace=wrap;html=1;" vertex="1" parent="1">
          <mxGeometry x="60" y="100" width="90" height="200" as="geometry" />
        </mxCell>
        <mxCell id="Mu4Yu6SJkgnIUBTmuAtY-3" value="私密投屏" style="text;html=1;align=center;verticalAlign=middle;whiteSpace=wrap;rounded=0;" vertex="1" parent="1">
          <mxGeometry x="70" y="110" width="60" height="30" as="geometry" />
        </mxCell>
        <mxCell id="Mu4Yu6SJkgnIUBTmuAtY-4" value="授权列表" style="text;html=1;align=center;verticalAlign=middle;whiteSpace=wrap;rounded=0;" vertex="1" parent="1">
          <mxGeometry x="90" y="140" width="60" height="30" as="geometry" />
        </mxCell>
        <mxCell id="Mu4Yu6SJkgnIUBTmuAtY-5" value="投屏配置" style="text;html=1;align=center;verticalAlign=middle;whiteSpace=wrap;rounded=0;" vertex="1" parent="1">
          <mxGeometry x="90" y="170" width="60" height="30" as="geometry" />
        </mxCell>
        <mxCell id="Mu4Yu6SJkgnIUBTmuAtY-6" value="" style="rounded=0;whiteSpace=wrap;html=1;" vertex="1" parent="1">
          <mxGeometry x="250" y="90" width="396" height="240" as="geometry" />
        </mxCell>
        <mxCell id="Mu4Yu6SJkgnIUBTmuAtY-7" value="授权列表" style="text;html=1;align=center;verticalAlign=middle;whiteSpace=wrap;rounded=0;" vertex="1" parent="1">
          <mxGeometry x="340" y="20" width="60" height="30" as="geometry" />
        </mxCell>
        <mxCell id="Mu4Yu6SJkgnIUBTmuAtY-8" value="" style="rounded=0;whiteSpace=wrap;html=1;" vertex="1" parent="1">
          <mxGeometry x="250" y="90" width="396" height="30" as="geometry" />
        </mxCell>
        <mxCell id="Mu4Yu6SJkgnIUBTmuAtY-9" value="房间名称" style="text;html=1;align=center;verticalAlign=middle;whiteSpace=wrap;rounded=0;" vertex="1" parent="1">
          <mxGeometry x="250" y="90" width="60" height="30" as="geometry" />
        </mxCell>
        <mxCell id="Mu4Yu6SJkgnIUBTmuAtY-10" value="&lt;pre style=&quot;background-color:#ffffff;color:#080808;font-family:&#39;宋体&#39;,monospace;font-size:9.8pt;&quot;&gt;&lt;span style=&quot;color:#067d17;background-color:#f7faff;&quot;&gt;授权别名&lt;/span&gt;&lt;/pre&gt;" style="text;html=1;align=center;verticalAlign=middle;whiteSpace=wrap;rounded=0;" vertex="1" parent="1">
          <mxGeometry x="310" y="90" width="60" height="30" as="geometry" />
        </mxCell>
        <mxCell id="Mu4Yu6SJkgnIUBTmuAtY-11" value="&lt;pre style=&quot;background-color: rgb(255, 255, 255); color: rgb(8, 8, 8); font-family: 宋体, monospace; font-size: 9.8pt;&quot;&gt;&lt;pre style=&quot;font-family: 宋体, monospace; font-size: 9.8pt;&quot;&gt;&lt;span style=&quot;color:#067d17;background-color:#f7faff;&quot;&gt;授权类型&lt;/span&gt;&lt;/pre&gt;&lt;/pre&gt;" style="text;html=1;align=center;verticalAlign=middle;whiteSpace=wrap;rounded=0;" vertex="1" parent="1">
          <mxGeometry x="370" y="90" width="60" height="30" as="geometry" />
        </mxCell>
        <mxCell id="Mu4Yu6SJkgnIUBTmuAtY-12" value="&lt;pre style=&quot;background-color: rgb(255, 255, 255); color: rgb(8, 8, 8); font-family: 宋体, monospace; font-size: 9.8pt;&quot;&gt;&lt;pre style=&quot;font-family: 宋体, monospace; font-size: 9.8pt;&quot;&gt;&lt;span style=&quot;color:#067d17;background-color:#f7faff;&quot;&gt;授权mac&lt;/span&gt;&lt;/pre&gt;&lt;/pre&gt;" style="text;html=1;align=center;verticalAlign=middle;whiteSpace=wrap;rounded=0;" vertex="1" parent="1">
          <mxGeometry x="430" y="90" width="60" height="30" as="geometry" />
        </mxCell>
        <mxCell id="Mu4Yu6SJkgnIUBTmuAtY-13" value="&lt;pre style=&quot;font-family: 宋体, monospace; font-size: 9.8pt; background-color: rgb(255, 255, 255); color: rgb(8, 8, 8);&quot;&gt;&lt;pre style=&quot;font-family: 宋体, monospace; font-size: 9.8pt;&quot;&gt;&lt;font color=&quot;#067d17&quot;&gt;&lt;span style=&quot;background-color: rgb(247, 250, 255);&quot;&gt;状态&lt;/span&gt;&lt;/font&gt;&lt;/pre&gt;&lt;/pre&gt;" style="text;html=1;align=center;verticalAlign=middle;whiteSpace=wrap;rounded=0;" vertex="1" parent="1">
          <mxGeometry x="470" y="90" width="60" height="30" as="geometry" />
        </mxCell>
        <mxCell id="Mu4Yu6SJkgnIUBTmuAtY-14" value="&lt;pre style=&quot;font-family: 宋体, monospace; font-size: 9.8pt; background-color: rgb(255, 255, 255); color: rgb(8, 8, 8);&quot;&gt;&lt;pre style=&quot;font-family: 宋体, monospace; font-size: 9.8pt;&quot;&gt;&lt;font color=&quot;#067d17&quot;&gt;&lt;span style=&quot;background-color: rgb(247, 250, 255);&quot;&gt;操作&lt;/span&gt;&lt;/font&gt;&lt;/pre&gt;&lt;/pre&gt;" style="text;html=1;align=center;verticalAlign=middle;whiteSpace=wrap;rounded=0;" vertex="1" parent="1">
          <mxGeometry x="586" y="90" width="60" height="30" as="geometry" />
        </mxCell>
        <mxCell id="Mu4Yu6SJkgnIUBTmuAtY-15" value="新增" style="text;html=1;align=center;verticalAlign=middle;whiteSpace=wrap;rounded=0;" vertex="1" parent="1">
          <mxGeometry x="570" y="60" width="60" height="30" as="geometry" />
        </mxCell>
        <mxCell id="Mu4Yu6SJkgnIUBTmuAtY-16" value="同步绑定的电视" style="text;html=1;align=center;verticalAlign=middle;whiteSpace=wrap;rounded=0;" vertex="1" parent="1">
          <mxGeometry x="470" y="60" width="106" height="30" as="geometry" />
        </mxCell>
        <mxCell id="Mu4Yu6SJkgnIUBTmuAtY-19" value="编辑" style="text;html=1;align=center;verticalAlign=middle;whiteSpace=wrap;rounded=0;" vertex="1" parent="1">
          <mxGeometry x="586" y="120" width="60" height="30" as="geometry" />
        </mxCell>
        <mxCell id="Mu4Yu6SJkgnIUBTmuAtY-20" value="" style="rounded=0;whiteSpace=wrap;html=1;" vertex="1" parent="1">
          <mxGeometry x="250" y="430" width="396" height="240" as="geometry" />
        </mxCell>
        <mxCell id="Mu4Yu6SJkgnIUBTmuAtY-21" value="投屏配置" style="text;html=1;align=center;verticalAlign=middle;whiteSpace=wrap;rounded=0;" vertex="1" parent="1">
          <mxGeometry x="380" y="380" width="60" height="30" as="geometry" />
        </mxCell>
        <mxCell id="Mu4Yu6SJkgnIUBTmuAtY-22" value="" style="rounded=0;whiteSpace=wrap;html=1;" vertex="1" parent="1">
          <mxGeometry x="250" y="430" width="396" height="30" as="geometry" />
        </mxCell>
        <mxCell id="Mu4Yu6SJkgnIUBTmuAtY-23" value="配置名称" style="text;html=1;align=center;verticalAlign=middle;whiteSpace=wrap;rounded=0;" vertex="1" parent="1">
          <mxGeometry x="250" y="430" width="60" height="30" as="geometry" />
        </mxCell>
        <mxCell id="Mu4Yu6SJkgnIUBTmuAtY-28" value="&lt;pre style=&quot;font-family: 宋体, monospace; font-size: 9.8pt; background-color: rgb(255, 255, 255); color: rgb(8, 8, 8);&quot;&gt;&lt;pre style=&quot;font-family: 宋体, monospace; font-size: 9.8pt;&quot;&gt;&lt;font color=&quot;#067d17&quot;&gt;&lt;span style=&quot;background-color: rgb(247, 250, 255);&quot;&gt;操作&lt;/span&gt;&lt;/font&gt;&lt;/pre&gt;&lt;/pre&gt;" style="text;html=1;align=center;verticalAlign=middle;whiteSpace=wrap;rounded=0;" vertex="1" parent="1">
          <mxGeometry x="586" y="430" width="60" height="30" as="geometry" />
        </mxCell>
        <mxCell id="Mu4Yu6SJkgnIUBTmuAtY-32" value="编辑" style="text;html=1;align=center;verticalAlign=middle;whiteSpace=wrap;rounded=0;" vertex="1" parent="1">
          <mxGeometry x="576" y="460" width="60" height="30" as="geometry" />
        </mxCell>
        <mxCell id="Mu4Yu6SJkgnIUBTmuAtY-33" value="新增" style="text;html=1;align=center;verticalAlign=middle;whiteSpace=wrap;rounded=0;" vertex="1" parent="1">
          <mxGeometry x="570" y="400" width="60" height="30" as="geometry" />
        </mxCell>
        <mxCell id="Mu4Yu6SJkgnIUBTmuAtY-34" value="版本号" style="text;html=1;align=center;verticalAlign=middle;whiteSpace=wrap;rounded=0;" vertex="1" parent="1">
          <mxGeometry x="310" y="430" width="60" height="30" as="geometry" />
        </mxCell>
        <mxCell id="Mu4Yu6SJkgnIUBTmuAtY-35" value="房间" style="text;html=1;align=center;verticalAlign=middle;whiteSpace=wrap;rounded=0;" vertex="1" parent="1">
          <mxGeometry x="354" y="430" width="60" height="30" as="geometry" />
        </mxCell>
        <mxCell id="Mu4Yu6SJkgnIUBTmuAtY-36" value="模板编号" style="text;html=1;align=center;verticalAlign=middle;whiteSpace=wrap;rounded=0;" vertex="1" parent="1">
          <mxGeometry x="410" y="430" width="60" height="30" as="geometry" />
        </mxCell>
        <mxCell id="Mu4Yu6SJkgnIUBTmuAtY-37" value="模板code" style="text;html=1;align=center;verticalAlign=middle;whiteSpace=wrap;rounded=0;" vertex="1" parent="1">
          <mxGeometry x="470" y="430" width="60" height="30" as="geometry" />
        </mxCell>
        <mxCell id="Mu4Yu6SJkgnIUBTmuAtY-38" value="状态" style="text;html=1;align=center;verticalAlign=middle;whiteSpace=wrap;rounded=0;" vertex="1" parent="1">
          <mxGeometry x="530" y="430" width="60" height="30" as="geometry" />
        </mxCell>
        <mxCell id="Mu4Yu6SJkgnIUBTmuAtY-40" value="批量授权" style="text;html=1;align=center;verticalAlign=middle;whiteSpace=wrap;rounded=0;" vertex="1" parent="1">
          <mxGeometry x="400" y="60" width="60" height="30" as="geometry" />
        </mxCell>
        <mxCell id="Mu4Yu6SJkgnIUBTmuAtY-41" value="&lt;pre style=&quot;font-family: 宋体, monospace; font-size: 9.8pt; background-color: rgb(255, 255, 255); color: rgb(8, 8, 8);&quot;&gt;&lt;pre style=&quot;font-family: 宋体, monospace; font-size: 9.8pt;&quot;&gt;&lt;font color=&quot;#067d17&quot;&gt;&lt;span style=&quot;background-color: rgb(247, 250, 255);&quot;&gt;更新时间&lt;/span&gt;&lt;/font&gt;&lt;/pre&gt;&lt;/pre&gt;" style="text;html=1;align=center;verticalAlign=middle;whiteSpace=wrap;rounded=0;" vertex="1" parent="1">
          <mxGeometry x="510" y="90" width="60" height="30" as="geometry" />
        </mxCell>
      </root>
    </mxGraphModel>
  </diagram>
</mxfile>
